<svg aria-hidden="true" xmlns="http://www.w3.org/2000/svg" xmlns:xlink="http://www.w3.org/1999/xlink"><symbol viewBox="0 0 12 10" id="mail" xmlns="http://www.w3.org/2000/svg">
<path d="M10.9453 0.173828H1.05469C0.473859 0.173828 0 0.647172 0 1.22852V8.25977C0 8.83914 0.47175 9.31445 1.05469 9.31445H10.9453C11.5247 9.31445 12 8.8427 12 8.25977V1.22852C12 0.649141 11.5282 0.173828 10.9453 0.173828ZM10.7997 0.876953L6.02236 5.65429L1.20373 0.876953H10.7997ZM0.703125 8.11417V1.37076L4.08935 4.72795L0.703125 8.11417ZM1.2003 8.61133L4.58866 5.22297L5.77594 6.40005C5.91337 6.53631 6.13516 6.53587 6.27204 6.39897L7.42969 5.24132L10.7997 8.61133H1.2003ZM11.2969 8.11415L7.92687 4.74414L11.2969 1.37411V8.11415Z"/>
</symbol><symbol viewBox="0 0 12 13" id="network" xmlns="http://www.w3.org/2000/svg">
<path d="M6 0.173828C2.69156 0.173828 0 2.86539 0 6.17383C0 9.48227 2.69156 12.1738 6 12.1738C9.30844 12.1738 12 9.48227 12 6.17383C12 2.86539 9.30844 0.173828 6 0.173828ZM5.64844 3.1189C5.11359 3.09592 4.58414 3.02075 4.07858 2.89853C4.15933 2.70718 4.24695 2.52344 4.34143 2.3493C4.72906 1.63501 5.20496 1.13376 5.64844 0.952209V3.1189ZM5.64844 3.82257V5.82227H3.45255C3.48349 5.04178 3.61652 4.26697 3.83652 3.56219C4.41953 3.70905 5.03156 3.79794 5.64844 3.82257ZM5.64844 6.52539V8.52509C5.03156 8.54971 4.41953 8.63861 3.83652 8.78546C3.61652 8.08069 3.48349 7.30588 3.45255 6.52539H5.64844ZM5.64844 9.22876V11.3954C5.20496 11.2139 4.72906 10.7126 4.34143 9.99835C4.24695 9.82422 4.15933 9.64047 4.07858 9.44913C4.58414 9.3269 5.11349 9.25174 5.64844 9.22876ZM6.35156 9.22876C6.88641 9.25174 7.41586 9.3269 7.92142 9.44913C7.84067 9.64047 7.75305 9.82422 7.65857 9.99835C7.27094 10.7126 6.79504 11.2139 6.35156 11.3954V9.22876ZM6.35156 8.52509V6.52539H8.54745C8.51651 7.30588 8.38348 8.08069 8.16348 8.78546C7.58047 8.63861 6.96844 8.54971 6.35156 8.52509ZM6.35156 5.82227V3.82257C6.96844 3.79794 7.58047 3.70905 8.16348 3.56219C8.38348 4.26697 8.51651 5.04178 8.54745 5.82227H6.35156ZM6.35156 3.1189V0.952209C6.79504 1.13376 7.27094 1.63501 7.65857 2.3493C7.75305 2.52344 7.84067 2.70718 7.92142 2.89853C7.41586 3.02075 6.88641 3.09592 6.35156 3.1189ZM8.27655 2.01395C8.10049 1.68948 7.90924 1.40347 7.70764 1.15948C8.41058 1.39954 9.04733 1.7836 9.58282 2.27615C9.2774 2.43976 8.94827 2.58185 8.60202 2.70059C8.50378 2.46201 8.3952 2.23248 8.27655 2.01395ZM3.72345 2.01395C3.6048 2.23248 3.49622 2.46201 3.39798 2.70059C3.05173 2.58185 2.7226 2.43967 2.41718 2.27615C2.95267 1.7836 3.58942 1.39954 4.29236 1.15948C4.09076 1.40347 3.8996 1.68939 3.72345 2.01395ZM3.16013 3.36142C2.92017 4.12909 2.77908 4.96597 2.74869 5.82227H0.715118C0.790375 4.6796 1.22919 3.63461 1.9173 2.80276C2.29916 3.02176 2.71738 3.20908 3.16013 3.36142ZM2.74869 6.52539C2.77908 7.38177 2.92017 8.21857 3.16013 8.98624C2.71738 9.13858 2.29916 9.3259 1.9173 9.54489C1.22919 8.71304 0.790375 7.66806 0.715118 6.52539H2.74869ZM3.39798 9.64706C3.49622 9.88565 3.6048 10.1152 3.72345 10.3337C3.8996 10.6582 4.09076 10.9442 4.29236 11.1882C3.58942 10.9481 2.95267 10.5641 2.41727 10.0715C2.7225 9.90799 3.05173 9.76581 3.39798 9.64706ZM8.27655 10.3337C8.3952 10.1152 8.50378 9.88565 8.60202 9.64706C8.94827 9.76581 9.2774 9.90799 9.58282 10.0715C9.04733 10.5641 8.41058 10.9481 7.70764 11.1882C7.90924 10.9442 8.1004 10.6583 8.27655 10.3337ZM8.83987 8.98624C9.07983 8.21857 9.22092 7.38168 9.25131 6.52539H11.2849C11.2096 7.66806 10.7708 8.71304 10.0827 9.54489C9.70084 9.3259 9.28262 9.13858 8.83987 8.98624ZM9.25131 5.82227C9.22092 4.96588 9.07983 4.12909 8.83987 3.36142C9.28262 3.20908 9.70084 3.02176 10.0827 2.80276C10.7708 3.63461 11.2096 4.6796 11.2849 5.82227H9.25131Z"/>
</symbol><symbol viewBox="0 0 7 9" id="play" xmlns="http://www.w3.org/2000/svg">
<path fill-rule="evenodd" clip-rule="evenodd" d="M0.53819 0.113024C0.868922 -0.0591735 1.26799 -0.0330591 1.57346 0.180771L6.57346 3.68077C6.84079 3.8679 7 4.17369 7 4.5C7 4.82632 6.84079 5.13211 6.57346 5.31923L1.57346 8.81923C1.26799 9.03306 0.868922 9.05918 0.53819 8.88698C0.207457 8.71478 0 8.37288 0 8V1C0 0.627127 0.207457 0.285222 0.53819 0.113024ZM2 2.92066V6.07935L4.25621 4.5L2 2.92066Z"/>
</symbol><symbol viewBox="0 0 18 33" id="quotat" xmlns="http://www.w3.org/2000/svg">
<path d="M12.8079 0.866577H4.26931C3.08325 0.866577 2.07531 1.28169 1.24501 2.11167C0.415108 2.94181 0 3.94975 0 5.13588V13.6742C0 14.8602 0.414874 15.868 1.24501 16.698C2.07523 17.5279 3.08348 17.9432 4.26931 17.9432H9.25006C9.84281 17.9432 10.3469 18.1508 10.762 18.5658C11.1772 18.9805 11.3846 19.4848 11.3846 20.078V20.7891C11.3846 22.3605 10.8286 23.7017 9.71696 24.8136C8.6052 25.9251 7.26377 26.481 5.6922 26.481H4.26931C3.88364 26.481 3.55023 26.6222 3.26845 26.9037C2.98691 27.1851 2.84602 27.5188 2.84602 27.9042V30.7507C2.84602 31.1355 2.98691 31.4698 3.26845 31.7513C3.55046 32.0327 3.88356 32.174 4.26931 32.174H5.69228C7.2341 32.174 8.70536 31.8734 10.1063 31.2732C11.5071 30.673 12.7189 29.8611 13.7418 28.8383C14.7645 27.8153 15.5761 26.6038 16.1764 25.2028C16.7767 23.802 17.0769 22.3308 17.0769 20.7892V5.13557C17.0769 3.94944 16.6618 2.94157 15.8318 2.11159C15.0018 1.28161 13.9937 0.866577 12.8079 0.866577Z"/>
</symbol></svg>